<svg id="visual" viewBox="0 0 960 540" width="960" height="540" xmlns="http://www.w3.org/2000/svg" xmlns:xlink="http://www.w3.org/1999/xlink" version="1.1"><rect x="0" y="0" width="960" height="540" fill="#bacdea"></rect><path d="M0 110L40 108.3C80 106.7 160 103.3 240 99.7C320 96 400 92 480 92.8C560 93.7 640 99.3 720 99C800 98.7 880 92.3 920 89.2L960 86L960 0L920 0C880 0 800 0 720 0C640 0 560 0 480 0C400 0 320 0 240 0C160 0 80 0 40 0L0 0Z" fill="#bacdea"></path><path d="M0 89L40 85.3C80 81.7 160 74.3 240 70.8C320 67.3 400 67.7 480 67.2C560 66.7 640 65.3 720 67.5C800 69.7 880 75.3 920 78.2L960 81L960 0L920 0C880 0 800 0 720 0C640 0 560 0 480 0C400 0 320 0 240 0C160 0 80 0 40 0L0 0Z" fill="#829dd2"></path><path d="M0 41L40 42C80 43 160 45 240 45.5C320 46 400 45 480 48.7C560 52.3 640 60.7 720 65C800 69.3 880 69.7 920 69.8L960 70L960 0L920 0C880 0 800 0 720 0C640 0 560 0 480 0C400 0 320 0 240 0C160 0 80 0 40 0L0 0Z" fill="#4f6db7"></path><path d="M0 44L40 42.5C80 41 160 38 240 36.7C320 35.3 400 35.7 480 35.7C560 35.7 640 35.3 720 33.8C800 32.3 880 29.7 920 28.3L960 27L960 0L920 0C880 0 800 0 720 0C640 0 560 0 480 0C400 0 320 0 240 0C160 0 80 0 40 0L0 0Z" fill="#1d3f9a"></path></svg>